<?xml version="1.0" encoding="utf-8"?>
<?xml-stylesheet type="text/xsl" href="rss1.xsl"?>
<rss version="2.0" xmlns:atom="http://www.w3.org/2005/Atom" xmlns:content="http://purl.org/rss/1.0/modules/content/" xmlns:dc="http://purl.org/dc/elements/1.1/" xmlns:media="http://search.yahoo.com/mrss/">
<channel>
 <title>Getty</title>
 <link>http://www.gettyimg.com/</link>
 <atom:link href="http://www.gettyimg.com/" rel="self" type="application/rss+xml" />

 
                <item>
                <title><![CDATA[【Deep Thoughts &amp; Laughters】XÔ DA XUXA (Xou da Xuxa - Guto Paródias)]]></title>
                <link><![CDATA[https://sharemania.us/threads/x%C3%94-da-xuxa-xou-da-xuxa-guto-par%C3%B3dias.242328/]]></link>
                <description><![CDATA[<article>
<blockquote class="messageText SelectQuoteContainer ugc baseHtml">
<span data-s9e-mediaembed="youtube" style="display:inline-block;width:100%;max-width:640px"><span style="display:block;overflow:hidden;position:relative;padding-bottom:56.25%"><iframe allowfullscreen="" loading="lazy" scrolling="no" style="background:url(https://i.ytimg.com/vi/UOx7PFg-QQM/hqdefault.jpg) 50% 50% / cover;border:0;height:100%;left:0;position:absolute;width:100%" src="https://www.youtube.com/embed/UOx7PFg-QQM?list=PLzfYzoZi5_caSvMj5Ftz3n97t82lmlPhR"></iframe></span></span>
<div class="messageTextEndMarker">&nbsp;</div>
</blockquote>
</article>]]></description>
                <author><![CDATA[Fan Made]]></author>
                </item>

                
                <item>
                <title><![CDATA[【Apple Music】WEB-RiP - GloRilla &amp; Megan Thee Stallion - Wanna Be (Explicit) [Apple HD Music Video]]]></title>
                <link><![CDATA[https://sharemania.us/threads/glorilla-megan-thee-stallion-wanna-be-explicit-apple-hd-music-video.242329/]]></link>
                <description><![CDATA[<article>
<blockquote class="messageText SelectQuoteContainer ugc baseHtml">
<span style="font-size: 22px"><b>GloRilla &amp; Megan Thee Stallion - Wanna Be (Explicit) [Apple HD Music Video]</b></span><br>
<br>
<img src="https://imgur.com/9FQh2Te.jpg" class="bbCodeImage LbImage" alt="[​IMG]" data-url="https://imgur.com/9FQh2Te.jpg" style=""><br>
<br>
<div class="bbCodeBlock bbCodeCode">
<div class="type">Code:</div>
<pre>General
Format                         : MPEG-4
Codec ID                       : M4V  (isom/iso4/M4V /mp42)
File size                      : 196 MiB
Duration                       : 2 min 39 s
Overall bit rate mode          : Variable
Overall bit rate               : 10.3 Mb/s
Movie name                     : Wanna Be
Performer                      : GloRilla &amp; Megan Thee Stallion
Genre                          : Hip-Hop/Rap
ContentType                    : Music Video
Recorded date                  : UTC 2024-04-05 07:00:00
Encoded date                   : UTC 2024-04-06 06:11:20
Tagged date                    : UTC 2024-04-06 06:11:20
Copyright                      : ℗ 2024 CMG/Interscope Records
Cover                          : Yes
Rating                         : Explicit
GenreID                        : 1618
AppleStoreCountry              : United Kingdom
AlbumTitleID                   : 1441017729
AppleStoreCatalogID            : 1739838843

Video
ID                             : 2
Format                         : AVC
Format/Info                    : Advanced Video Codec
Format profile                 : High@L4
Format settings                : CABAC / 4 Ref Frames
Format settings, CABAC         : Yes
Format settings, Reference fra : 4 frames
Codec ID                       : avc1
Codec ID/Info                  : Advanced Video Coding
Duration                       : 2 min 39 s
Bit rate                       : 10.0 Mb/s
Maximum bit rate               : 25.9 Mb/s
Width                          : 1 920 pixels
Height                         : 1 080 pixels
Display aspect ratio           : 16:9
Frame rate mode                : Constant
Frame rate                     : 23.976 (24000/1001) FPS
Color space                    : YUV
Chroma subsampling             : 4:2:0
Bit depth                      : 8 bits
Scan type                      : Progressive
Bits/(Pixel*Frame)             : 0.202
Stream size                    : 190 MiB (97%)
Title                          : Core Media Video
Language                       : English
Encoded date                   : UTC 2024-04-05 21:14:43
Tagged date                    : UTC 2024-04-06 06:11:25
Color range                    : Limited
Color primaries                : BT.709
Transfer characteristics       : BT.709
Matrix coefficients            : BT.709
Codec configuration box        : avcC

Audio
ID                             : 1
Format                         : AAC LC
Format/Info                    : Advanced Audio Codec Low Complexity
Codec ID                       : mp4a-40-2
Duration                       : 2 min 39 s
Duration_LastFrame             : -6 ms
Bit rate mode                  : Variable
Bit rate                       : 265 kb/s
Maximum bit rate               : 454 kb/s
Channel(s)                     : 2 channels
Channel layout                 : L R
Sampling rate                  : 48.0 kHz
Frame rate                     : 46.875 FPS (1024 SPF)
Compression mode               : Lossy
Stream size                    : 5.00 MiB (3%)
Title                          : Core Media Audio
Encoded date                   : UTC 2024-04-05 21:14:27
Tagged date                    : UTC 2024-04-06 06:11:25

Text
ID                             : 3
Format                         : EIA-608
Codec ID                       : c608
Duration                       : 2 min 36 s
Bit rate mode                  : Variable
Bit rate                       : 256 b/s
Maximum bit rate               : 1 856 b/s
Frame rate                     : 0.544 FPS
Stream size                    : 4.88 KiB (0%)
Title                          : Core Media Closed Caption
Language                       : English
Forced                         : No
Encoded date                   : UTC 2024-04-05 21:14:43
Tagged date                    : UTC 2024-04-06 06:11:25
</pre>
</div>
<div class="bbCodeBlock bbCodeVfcHH HiddenContent">
<div class="attribution type">Hidden Content:</div>
<blockquote>You must reply before you can see the hidden data contained here.</blockquote>
</div>
<div class="messageTextEndMarker">&nbsp;</div>
</blockquote>
</article>]]></description>
                <author><![CDATA[abby0511]]></author>
                </item>

                </channel></rss>